<?xml version="1.0" standalone="no"?>
<!DOCTYPE svg PUBLIC "-//W3C//DTD SVG 20010904//EN"
 "http://www.w3.org/TR/2001/REC-SVG-20010904/DTD/svg10.dtd">
<svg version="1.0" xmlns="http://www.w3.org/2000/svg"
 width="1024.000000pt" height="1024.000000pt" viewBox="0 0 1024.000000 1024.000000"
 preserveAspectRatio="xMidYMid meet">

<g transform="translate(0.000000,1024.000000) scale(0.100000,-0.100000)"
fill="#000000" stroke="none">
<path d="M4810 7285 c-8 -2 -32 -6 -53 -10 -21 -3 -36 -9 -33 -13 2 -4 -8 -7
-23 -8 -35 -1 -178 -74 -269 -137 -134 -92 -263 -254 -332 -416 -66 -152 -75
-204 -73 -401 1 -216 1 -212 16 -223 8 -6 6 -7 -6 -3 -22 7 -67 -3 -67 -14 0
-4 9 -10 20 -13 11 -3 20 -11 20 -19 0 -8 -3 -9 -8 -2 -4 6 -15 13 -24 17 -10
3 -18 16 -18 28 0 19 -4 21 -36 14 -25 -4 -34 -3 -29 5 3 5 10 8 15 5 5 -3 12
0 15 6 4 5 13 8 20 5 19 -7 27 5 14 21 -6 7 -9 21 -6 32 7 26 -5 42 -23 31
-12 -8 -12 -10 4 -10 15 0 16 -3 6 -15 -10 -12 -10 -18 0 -30 10 -12 10 -15
-4 -15 -9 0 -16 7 -16 15 0 8 -4 16 -10 16 -5 1 -14 3 -20 4 -5 1 -14 3 -20 4
-5 0 -10 8 -10 16 0 9 -9 15 -22 15 -17 0 -19 3 -9 9 10 7 11 13 2 27 -6 11
-11 13 -11 6 0 -7 -4 -10 -10 -7 -5 3 -10 0 -11 -7 0 -7 -5 -2 -10 11 -5 13
-7 26 -4 29 3 3 5 0 5 -6 0 -6 11 -9 25 -6 14 2 25 0 25 -6 0 -6 4 -9 10 -5
16 10 0 33 -21 28 -14 -4 -19 0 -19 13 0 16 -2 17 -11 4 -8 -12 -9 -9 -5 12 5
22 3 25 -13 21 -27 -7 -36 14 -11 27 11 6 20 18 20 27 0 14 -4 13 -21 -6 -24
-26 -36 -22 -20 7 6 12 11 24 11 29 -1 4 -9 -8 -20 -27 -11 -19 -19 -28 -20
-20 0 13 -2 13 -11 0 -9 -12 -10 -12 -5 3 3 10 6 22 6 25 0 4 4 1 9 -6 6 -11
9 -9 13 5 4 14 -1 19 -19 21 -28 2 -43 10 -43 21 0 5 11 6 24 4 13 -3 27 0 30
6 5 7 -2 11 -18 11 -14 0 -26 5 -26 10 0 6 5 10 11 10 5 0 7 5 3 11 -4 8 -10
7 -18 -1 -7 -7 -11 -69 -10 -188 0 -157 3 -189 26 -282 15 -58 40 -141 58
-186 37 -98 124 -250 140 -246 6 1 9 -2 5 -8 -9 -15 102 -142 198 -227 61 -55
87 -71 102 -67 14 4 16 3 6 -4 -16 -12 3 -27 21 -16 6 4 8 3 4 -4 -23 -37 287
-173 554 -243 150 -40 184 -52 187 -66 2 -8 -4 -10 -14 -6 -11 5 -14 3 -9 -6
5 -8 18 -10 32 -7 13 4 24 2 24 -3 0 -5 -10 -11 -23 -15 -31 -7 -31 -34 0 -68
14 -14 24 -30 23 -35 -2 -4 8 -14 21 -20 l24 -13 -25 -1 -25 -1 25 -8 c81 -26
-276 3 -430 34 -398 83 -701 278 -942 606 -45 62 -125 222 -166 335 -46 125
-70 232 -79 355 -7 82 -7 83 -15 40 -4 -25 -5 -58 -2 -73 15 -70 11 -163 -6
-152 -5 3 -4 21 1 40 7 24 6 40 -1 53 -10 15 -11 15 -7 -3 2 -11 -2 -27 -10
-34 -8 -7 -12 -20 -9 -28 4 -9 -1 -17 -14 -20 -14 -4 -19 -11 -15 -23 4 -14
-2 -21 -28 -29 -27 -9 -36 -19 -41 -44 -5 -23 -9 -28 -15 -18 -6 10 -12 4 -20
-22 -7 -19 -19 -41 -27 -48 -11 -9 -12 -15 -2 -27 11 -13 7 -14 -30 -11 -23 3
-42 1 -42 -3 0 -5 7 -8 15 -8 8 0 15 -7 15 -15 0 -8 -8 -15 -18 -15 -30 0 -34
-13 -10 -27 23 -12 22 -12 -8 -13 -19 0 -34 -6 -38 -15 -3 -8 -17 -15 -30 -15
-18 0 -24 -4 -20 -14 4 -10 -3 -16 -23 -19 -25 -4 -25 -4 7 -6 27 -1 31 -4 20
-11 -8 -6 -27 -7 -42 -4 -24 5 -28 2 -28 -15 0 -12 5 -21 10 -21 6 0 10 -5 10
-12 0 -6 -9 -3 -21 8 -16 15 -22 16 -29 5 -4 -8 -6 -20 -3 -28 3 -7 0 -13 -5
-13 -6 0 -13 8 -15 18 -4 16 -5 16 -6 0 -1 -11 -9 -18 -21 -18 -18 0 -19 -3
-8 -20 7 -10 8 -23 4 -27 -5 -4 -11 -2 -13 5 -6 17 -33 15 -33 -2 0 -9 -17
-19 -42 -24 -34 -8 -37 -10 -15 -11 15 -1 27 -5 27 -11 0 -5 -6 -7 -14 -4 -8
3 -19 -3 -26 -15 -9 -17 -15 -19 -30 -11 -11 6 -21 18 -22 28 -7 66 -12 -177
-6 -323 20 -526 200 -998 546 -1435 377 -474 958 -818 1557 -921 228 -40 570
-36 808 7 l87 16 0 88 0 89 98 31 c328 106 604 303 812 580 96 129 233 401
215 429 -3 6 -2 11 3 11 9 0 33 89 31 118 0 9 -7 -9 -15 -41 -16 -67 -41 -106
-68 -107 -11 0 -16 3 -13 7 4 3 -3 11 -16 17 -12 6 -23 22 -25 34 -3 18 -8 21
-28 16 -13 -3 -24 -2 -24 3 0 6 -10 21 -21 34 -21 24 -21 24 -15 2 4 -13 3
-23 -3 -23 -13 0 -34 -67 -25 -82 4 -7 4 -10 -1 -6 -4 4 -31 -39 -59 -95 -119
-237 -274 -409 -504 -561 -40 -27 -75 -46 -78 -44 -2 3 2 11 11 18 8 7 15 19
15 26 0 8 4 14 9 14 5 0 8 12 5 28 -3 18 -2 23 5 13 5 -7 13 -11 19 -7 5 3 13
-1 16 -10 5 -12 1 -14 -15 -9 -14 5 -19 3 -15 -3 3 -6 2 -13 -4 -17 -5 -3 -10
-12 -10 -18 0 -8 2 -9 8 -1 4 6 17 16 29 22 20 11 21 14 7 59 -10 32 -11 49
-4 53 7 4 6 11 -4 19 -8 7 -20 10 -25 7 -5 -4 -12 -2 -16 4 -3 5 -1 10 4 10 6
0 11 5 11 11 0 5 -4 8 -9 5 -5 -3 -14 0 -19 7 -9 10 -3 12 25 9 24 -3 34 -1
29 6 -4 6 -13 9 -20 6 -19 -7 -31 15 -17 29 9 9 11 8 6 -5 -4 -11 -2 -18 4
-18 6 0 11 5 11 11 0 6 10 8 23 5 l22 -6 -22 11 c-13 7 -23 18 -23 26 0 16 17
17 23 1 3 -9 12 -6 28 11 21 20 21 21 3 11 -15 -10 -26 -10 -40 -2 -17 10 -17
11 -2 12 11 0 15 5 12 15 -4 8 -1 15 6 15 7 0 9 8 5 19 -4 14 0 21 15 26 17 5
19 10 9 21 -9 11 -8 14 6 14 11 0 15 5 11 15 -3 8 2 19 11 24 15 8 15 11 3 27
-14 16 -13 17 4 11 14 -6 17 -4 12 9 -3 9 2 23 12 32 10 10 12 13 5 8 -10 -6
-12 -4 -7 8 3 9 10 16 15 16 5 0 9 5 9 10 0 6 11 28 24 49 101 159 152 415
122 614 -53 360 -249 601 -581 715 -72 25 -275 84 -525 153 -281 77 -534 156
-605 188 -250 114 -420 311 -497 577 -33 114 -33 331 1 454 95 346 359 598
751 716 l75 23 -50 -1 c-27 0 -57 -2 -65 -3z m-1030 -995 c0 -5 -4 -10 -10
-10 -5 0 -10 5 -10 10 0 6 5 10 10 10 6 0 10 -4 10 -10z m7 -122 c-3 -8 -6 -5
-6 6 -1 11 2 17 5 13 3 -3 4 -12 1 -19z m60 -22 c-3 -8 1 -22 8 -33 16 -21 19
-37 6 -28 -19 11 -40 64 -27 69 18 7 18 7 13 -8z m58 -16 c3 -5 -1 -10 -9 -10
-9 0 -16 5 -16 10 0 6 4 10 9 10 6 0 13 -4 16 -10z m35 -64 c0 -3 -4 -8 -10
-11 -5 -3 -10 -1 -10 4 0 6 5 11 10 11 6 0 10 -2 10 -4z m80 -6 c0 -5 -2 -10
-4 -10 -3 0 -8 5 -11 10 -3 6 -1 10 4 10 6 0 11 -4 11 -10z m27 -46 c-3 -3
-12 -4 -19 -1 -8 3 -5 6 6 6 11 1 17 -2 13 -5z m-39 -89 c-3 -3 -9 2 -12 12
-6 14 -5 15 5 6 7 -7 10 -15 7 -18z m102 -24 c8 -15 8 -21 1 -17 -6 4 -11 1
-11 -6 -1 -8 -4 -7 -10 4 -6 9 -7 24 -4 33 7 18 7 18 24 -14z m118 -332 c-2
-6 -8 -10 -13 -10 -5 0 -11 4 -13 10 -2 6 4 11 13 11 9 0 15 -5 13 -11z m120
-26 c-27 -7 -21 -23 11 -29 18 -4 28 -12 27 -22 -1 -11 5 -16 17 -14 9 2 17
-2 17 -9 0 -8 4 -8 15 1 15 12 39 5 30 -10 -5 -8 44 -21 82 -20 12 0 25 -5 28
-10 3 -6 15 -10 26 -10 10 0 19 -5 19 -11 0 -6 9 -8 21 -4 16 5 19 4 14 -5 -6
-9 1 -10 24 -5 26 5 31 4 32 -12 0 -10 3 -13 5 -6 4 9 16 9 49 -2 24 -7 46
-10 49 -8 3 3 18 0 34 -6 16 -7 43 -13 61 -13 17 -1 34 -5 37 -10 3 -4 21 -8
40 -8 19 0 34 -5 34 -11 0 -6 7 -8 16 -5 9 3 12 2 9 -5 -4 -6 2 -8 18 -4 14 4
35 2 46 -5 12 -6 34 -13 49 -15 63 -10 105 -24 114 -39 6 -8 8 -8 8 0 0 13
157 -27 380 -97 184 -58 266 -106 382 -222 61 -62 86 -97 127 -180 135 -269
131 -560 -10 -840 -108 -214 -346 -416 -596 -506 -149 -54 -222 -65 -408 -65
-149 1 -185 4 -290 28 -190 44 -352 117 -495 224 -90 67 -197 171 -235 229
-15 24 -31 40 -36 37 -5 -3 -6 1 -4 8 3 8 -3 23 -13 34 -10 11 -27 41 -37 67
-20 54 -30 64 -39 41 -3 -9 -2 -12 4 -9 15 9 29 -37 18 -58 -5 -10 -13 -15
-18 -12 -6 3 -7 -1 -4 -9 7 -19 21 -21 27 -3 2 6 8 9 12 5 5 -5 -4 -19 -19
-32 -21 -18 -27 -29 -22 -47 3 -13 3 -18 0 -11 -13 27 -21 8 -23 -54 -1 -40 3
-71 10 -80 10 -12 8 -20 -9 -43 -18 -25 -19 -30 -6 -35 8 -3 13 -10 10 -15 -3
-5 2 -15 12 -22 15 -13 16 -12 3 4 -7 9 -10 17 -6 17 4 0 2 7 -5 15 -11 13
-11 18 -1 28 10 9 16 8 25 -7 24 -39 48 -66 55 -62 4 3 8 -1 8 -9 0 -8 -4 -12
-9 -9 -4 3 -8 1 -8 -4 0 -5 -7 -9 -15 -9 -18 0 -20 24 -3 29 8 3 3 10 -12 18
-22 12 -24 12 -12 -2 9 -12 10 -18 2 -23 -12 -7 137 -152 152 -147 5 1 7 -2 4
-7 -4 -5 33 -38 81 -73 77 -56 111 -78 222 -146 19 -11 21 -16 10 -23 -9 -6
-4 -7 14 -3 21 5 28 3 27 -7 -4 -28 0 -41 13 -36 9 3 11 -6 9 -34 -3 -25 -10
-39 -20 -42 -11 -3 -7 -5 8 -6 22 -1 23 -3 8 -12 -25 -14 -23 -32 2 -19 14 7
20 7 20 0 0 -10 -20 -15 -53 -12 -17 2 -17 1 -2 -14 8 -9 22 -13 31 -10 8 3
12 2 9 -4 -9 -15 -24 -12 -58 12 -17 12 -27 16 -23 9 4 -6 -36 10 -91 37 -521
263 -865 740 -794 1103 27 137 122 255 239 299 73 28 198 29 263 4 109 -43
168 -103 267 -270 103 -175 190 -267 327 -347 189 -110 487 -147 703 -86 193
53 358 184 440 349 51 103 66 175 60 297 -4 78 -10 102 -40 165 -39 82 -101
151 -180 201 -96 60 -122 68 -673 212 -350 91 -513 143 -494 157 10 7 8 8 -9
5 -27 -6 -155 50 -147 64 7 10 62 6 73 -6 4 -5 1 -5 -5 -1 -7 4 -13 3 -13 -3
0 -19 15 -19 50 0 l35 20 -30 -5 c-16 -3 -24 -3 -16 1 11 5 11 7 0 15 -10 7
-8 8 9 5 26 -6 28 5 6 38 -9 13 -12 30 -8 36 5 8 3 9 -5 4 -7 -4 -11 -16 -8
-26 3 -12 0 -19 -8 -19 -18 0 -23 18 -17 58 4 26 1 32 -14 32 -12 0 -15 -3 -7
-8 8 -5 3 -11 -13 -19 -13 -6 -21 -7 -18 -2 11 18 -7 51 -25 46 -16 -4 -17 1
-11 34 7 36 6 37 -12 28 -31 -17 -34 -1 -4 22 15 12 24 24 21 27 -3 4 -10 1
-14 -6 -4 -7 -25 -15 -47 -17 -21 -2 -31 -2 -21 1 14 5 16 9 6 20 -9 11 -9 17
1 29 7 8 10 21 7 29 -4 11 5 18 36 24 43 10 88 14 55 5z m-1495 -177 c4 -10 1
-13 -8 -9 -8 3 -12 9 -9 14 7 12 11 11 17 -5z m1541 -91 c-6 -16 -24 -21 -24
-7 0 11 11 22 21 22 5 0 6 -7 3 -15z m-1034 -340 c31 -28 43 -79 30 -120 -33
-100 -177 -101 -210 -1 -16 50 14 115 65 137 29 13 93 3 115 -16z m1655 -5 c8
-13 -5 -13 -25 0 -13 8 -13 10 2 10 9 0 20 -4 23 -10z m-1 -49 c19 -7 18 -8
-5 -14 -20 -6 -22 -9 -9 -18 13 -9 12 -10 -3 -5 -10 3 -23 6 -28 6 -5 0 -9 5
-9 10 0 6 8 10 18 10 14 0 15 2 2 10 -13 9 -13 10 0 9 8 0 24 -4 34 -8z m43
-13 c-3 -8 -6 -5 -6 6 -1 11 2 17 5 13 3 -3 4 -12 1 -19z m1571 -973 c-3 -3
-9 2 -12 12 -6 14 -5 15 5 6 7 -7 10 -15 7 -18z m187 -15 c-4 -12 -9 -19 -12
-17 -3 3 -2 15 2 27 4 12 9 19 12 17 3 -3 2 -15 -2 -27z m-2770 -20 c3 -5 1
-10 -4 -10 -6 0 -11 5 -11 10 0 6 2 10 4 10 3 0 8 -4 11 -10z m2742 -29 c12
11 12 9 1 -16 -10 -22 -14 -24 -16 -12 -2 10 -8 15 -13 12 -5 -4 -6 2 -2 11 4
12 8 14 11 6 3 -10 7 -10 19 -1z m-36 -88 c-8 -15 -10 -15 -11 -2 0 17 10 32
18 25 2 -3 -1 -13 -7 -23z m-2744 -25 c-3 -8 -6 -5 -6 6 -1 11 2 17 5 13 3 -3
4 -12 1 -19z m118 -246 c-3 -3 -20 9 -38 27 l-32 34 38 -28 c21 -15 35 -30 32
-33z m33 -37 c-3 -3 -9 2 -12 12 -6 14 -5 15 5 6 7 -7 10 -15 7 -18z m57 -45
c10 -11 16 -20 13 -20 -3 0 -13 9 -23 20 -10 11 -16 20 -13 20 3 0 13 -9 23
-20z m1812 -59 c1 -33 0 -34 -8 -11 -6 14 -16 30 -25 36 -12 10 -11 11 8 11
19 0 23 -5 25 -36z m-42 -51 c3 -5 1 -10 -4 -10 -6 0 -11 5 -11 10 0 6 2 10 4
10 3 0 8 -4 11 -10z m-5 -34 c0 -3 -4 -8 -10 -11 -5 -3 -10 -1 -10 4 0 6 5 11
10 11 6 0 10 -2 10 -4z"/>
<path d="M4283 5523 c-21 -8 -14 -25 7 -18 13 4 22 1 26 -9 3 -9 10 -13 16
-10 5 3 2 14 -8 25 -18 20 -21 21 -41 12z"/>
<path d="M4272 5469 c2 -6 8 -10 13 -10 5 0 11 4 13 10 2 6 -4 11 -13 11 -9 0
-15 -5 -13 -11z"/>
<path d="M4330 5374 c0 -8 5 -12 10 -9 6 3 10 10 10 16 0 5 -4 9 -10 9 -5 0
-10 -7 -10 -16z"/>
<path d="M4370 5359 c0 -5 5 -7 10 -4 6 3 10 8 10 11 0 2 -4 4 -10 4 -5 0 -10
-5 -10 -11z"/>
<path d="M4489 5204 c18 -10 -1 -33 -36 -45 -36 -11 -36 -12 -13 -24 14 -7 34
-9 49 -5 17 4 34 2 48 -8 12 -7 28 -12 35 -9 8 4 6 6 -4 6 -10 1 -18 6 -18 11
0 6 -10 14 -22 19 -14 5 -23 17 -23 31 0 13 -6 24 -13 26 -7 1 -8 0 -3 -2z
m-14 -54 c-3 -5 -12 -10 -18 -10 -7 0 -6 4 3 10 19 12 23 12 15 0z"/>
<path d="M4350 5176 c0 -2 9 -6 20 -9 11 -3 18 -1 14 4 -5 9 -34 13 -34 5z"/>
<path d="M4520 5106 c0 -2 7 -7 16 -10 8 -3 12 -2 9 4 -6 10 -25 14 -25 6z"/>
<path d="M4637 5099 c7 -7 15 -10 18 -7 3 3 -2 9 -12 12 -14 6 -15 5 -6 -5z"/>
<path d="M4610 5076 c0 -2 7 -7 16 -10 8 -3 12 -2 9 4 -6 10 -25 14 -25 6z"/>
<path d="M3896 3701 c-3 -4 5 -18 18 -30 22 -21 24 -21 37 -4 12 16 12 17 -2
6 -13 -11 -19 -10 -33 5 -9 10 -13 22 -9 25 3 4 4 7 0 7 -3 0 -8 -4 -11 -9z"/>
<path d="M3969 3663 c-13 -16 -12 -17 4 -4 16 13 21 21 13 21 -2 0 -10 -8 -17
-17z"/>
<path d="M4520 3090 c0 -5 5 -10 11 -10 5 0 7 5 4 10 -3 6 -8 10 -11 10 -2 0
-4 -4 -4 -10z"/>
<path d="M4491 3026 c-10 -12 -8 -13 8 -9 12 3 18 9 15 14 -7 12 -10 11 -23
-5z"/>
<path d="M4960 6901 c-304 -66 -510 -299 -510 -576 0 -85 19 -158 57 -227 29
-50 31 -52 77 -54 47 -3 86 16 86 41 0 12 78 55 98 55 12 0 101 47 117 61 5 5
19 9 31 9 13 0 26 5 29 10 3 6 18 10 32 10 14 0 32 8 40 18 10 12 16 14 19 5
3 -7 15 -13 25 -13 11 0 18 4 15 9 -12 19 25 33 81 30 32 -2 63 0 69 4 16 10
206 -20 215 -34 5 -8 8 -8 11 1 3 10 9 10 26 -1 20 -12 24 -12 32 1 7 11 10 8
10 -15 1 -27 2 -28 14 -12 17 22 26 22 26 -3 0 -28 30 -26 31 3 1 21 1 21 9
-3 8 -24 8 -24 9 -2 1 12 7 22 14 22 24 0 12 -75 -21 -122 -47 -68 -75 -129
-64 -140 5 -5 27 -11 49 -13 69 -7 162 -45 198 -81 19 -19 44 -34 56 -34 16 0
19 -3 11 -12 -8 -10 -1 -13 28 -12 22 0 37 -2 35 -6 -4 -7 87 -50 105 -50 5 0
11 -4 14 -9 3 -4 -25 1 -63 13 -38 11 -67 25 -64 29 2 4 -8 5 -24 2 -22 -4
-24 -3 -8 4 15 6 9 8 -25 8 -25 0 -74 2 -110 6 -36 3 -54 4 -40 1 14 -2 52 -9
85 -15 117 -22 286 -75 370 -116 29 -14 51 -20 53 -14 3 10 43 62 120 159 25
31 37 40 43 31 6 -10 10 -10 23 0 8 7 20 10 26 6 5 -3 10 -1 10 4 0 6 -6 11
-14 11 -11 0 -9 6 7 24 17 19 24 21 38 13 16 -10 16 -12 1 -24 -12 -8 -13 -12
-4 -13 7 0 20 7 28 15 9 8 11 15 6 15 -6 0 -13 7 -16 16 -3 8 -2 12 4 9 14 -9
12 29 -2 43 -8 8 -9 12 -1 12 6 0 14 -6 16 -12 4 -10 8 -9 16 2 7 10 6 17 -2
22 -9 6 -7 11 6 19 11 6 16 17 12 28 -3 10 1 24 10 31 8 7 13 20 10 29 -6 20
56 122 62 104 3 -7 9 -13 14 -13 5 0 4 10 -3 21 -10 17 -10 23 0 26 6 3 12 9
12 13 0 5 14 30 31 55 17 25 28 49 25 52 -3 4 -28 -17 -56 -46 -152 -158 -418
-156 -576 4 -27 29 -78 97 -111 151 -134 218 -298 344 -528 405 -115 31 -338
36 -455 10z m230 -595 c0 -3 -4 -8 -10 -11 -5 -3 -10 -1 -10 4 0 6 5 11 10 11
6 0 10 -2 10 -4z m213 -23 c-7 -2 -21 -2 -30 0 -10 3 -4 5 12 5 17 0 24 -2 18
-5z m265 -63 c-14 -22 -24 -19 -15 5 4 8 11 15 17 15 6 0 6 -7 -2 -20z m-1038
-160 c0 -5 -4 -10 -10 -10 -5 0 -10 5 -10 10 0 6 5 10 10 10 6 0 10 -4 10 -10z
m1771 -133 c-10 -9 -11 -8 -5 6 3 10 9 15 12 12 3 -3 0 -11 -7 -18z m-444
-113 c-3 -3 -12 -4 -19 -1 -8 3 -5 6 6 6 11 1 17 -2 13 -5z"/>
<path d="M3696 6597 c3 -10 9 -15 12 -12 3 3 0 11 -7 18 -10 9 -11 8 -5 -6z"/>
<path d="M3688 6543 c7 -3 16 -2 19 1 4 3 -2 6 -13 5 -11 0 -14 -3 -6 -6z"/>
<path d="M3680 6509 c0 -5 5 -7 10 -4 6 3 10 8 10 11 0 2 -4 4 -10 4 -5 0 -10
-5 -10 -11z"/>
<path d="M3760 6433 c0 -4 5 -15 10 -23 8 -13 10 -13 10 2 0 9 -4 20 -10 23
-5 3 -10 3 -10 -2z"/>
<path d="M3393 6360 c0 -25 2 -35 4 -22 2 12 2 32 0 45 -2 12 -4 2 -4 -23z"/>
<path d="M3810 6322 c0 -5 7 -9 15 -9 8 0 12 4 9 9 -3 4 -9 8 -15 8 -5 0 -9
-4 -9 -8z"/>
<path d="M3825 6290 c-3 -5 -1 -10 4 -10 6 0 11 5 11 10 0 6 -2 10 -4 10 -3 0
-8 -4 -11 -10z"/>
<path d="M3890 6239 c0 -5 5 -7 10 -4 6 3 10 8 10 11 0 2 -4 4 -10 4 -5 0 -10
-5 -10 -11z"/>
<path d="M3860 6207 c0 -14 19 -37 32 -37 4 0 12 9 17 19 9 16 8 18 -9 14 -11
-3 -20 0 -20 6 0 6 -4 11 -10 11 -5 0 -10 -6 -10 -13z"/>
<path d="M3981 6137 c9 -7 14 -19 12 -27 -3 -9 1 -7 8 4 9 14 8 20 -2 27 -21
13 -36 10 -18 -4z"/>
<path d="M4560 6032 c0 -16 28 -34 34 -23 4 6 -3 15 -14 21 -11 6 -20 7 -20 2z"/>
<path d="M6530 5990 c0 -5 5 -10 10 -10 6 0 10 5 10 10 0 6 -4 10 -10 10 -5 0
-10 -4 -10 -10z"/>
<path d="M6510 5961 c0 -6 5 -13 10 -16 6 -3 10 1 10 9 0 9 -4 16 -10 16 -5 0
-10 -4 -10 -9z"/>
<path d="M6345 5847 c-6 -7 -16 -25 -23 -42 l-13 -30 21 25 c11 14 20 29 20
33 0 5 8 6 18 3 9 -3 31 -1 47 4 28 9 28 10 -7 4 -23 -3 -38 -1 -38 6 0 13
-13 12 -25 -3z"/>
<path d="M2780 5841 c0 -5 5 -13 10 -16 6 -3 10 -2 10 4 0 5 -4 13 -10 16 -5
3 -10 2 -10 -4z"/>
<path d="M5443 5843 c9 -2 25 -2 35 0 9 3 1 5 -18 5 -19 0 -27 -2 -17 -5z"/>
<path d="M2883 5817 c-8 -16 -18 -23 -35 -22 -12 1 -31 -5 -40 -13 -16 -14
-18 -13 -18 1 0 9 -4 19 -10 22 -6 4 -8 -7 -5 -27 5 -27 4 -30 -5 -13 -9 17
-10 15 -6 -11 3 -17 -2 -44 -10 -60 -13 -25 -49 -232 -41 -240 1 -2 18 27 37
64 19 37 37 69 40 72 3 3 26 38 53 77 44 69 59 101 38 89 -12 -8 -1 34 17 62
8 12 10 22 5 22 -5 0 -15 -11 -20 -23z m-29 -73 c5 -14 4 -15 -9 -4 -17 14
-19 20 -6 20 5 0 12 -7 15 -16z m-83 -75 c-6 -24 -9 -28 -10 -12 -1 24 9 56
16 50 2 -3 0 -20 -6 -38z"/>
<path d="M5583 5833 c15 -2 37 -2 50 0 12 2 0 4 -28 4 -27 0 -38 -2 -22 -4z"/>
<path d="M2901 5801 c-7 -5 -11 -17 -9 -27 4 -17 5 -17 17 4 14 27 12 35 -8
23z"/>
<path d="M6579 5643 c-13 -16 -12 -17 4 -4 9 7 17 15 17 17 0 8 -8 3 -21 -13z"/>
<path d="M6885 5530 c0 -62 3 -77 14 -76 9 1 17 -8 19 -19 6 -28 21 -45 42
-45 23 0 80 47 80 66 0 8 6 17 14 20 8 3 12 13 8 26 -3 11 1 24 9 29 12 7 12
9 -1 10 -10 0 -8 3 5 9 14 6 2 9 -41 9 -44 1 -73 8 -105 24 l-44 24 0 -77z"/>
<path d="M6460 5516 c0 -2 7 -9 15 -16 9 -7 15 -8 15 -2 0 5 -7 12 -15 16 -8
3 -15 4 -15 2z"/>
<path d="M2728 5413 c7 -3 16 -2 19 1 4 3 -2 6 -13 5 -11 0 -14 -3 -6 -6z"/>
<path d="M2720 5349 c0 -5 5 -7 10 -4 6 3 10 8 10 11 0 2 -4 4 -10 4 -5 0 -10
-5 -10 -11z"/>
<path d="M7556 4423 c-6 -14 -5 -15 5 -6 7 7 10 15 7 18 -3 3 -9 -2 -12 -12z"/>
<path d="M7539 4373 c-5 -14 -8 -30 -6 -36 1 -5 8 7 14 27 13 42 7 49 -8 9z"/>
<path d="M7507 4293 c-4 -3 -7 -13 -7 -22 1 -13 3 -13 11 2 11 19 8 33 -4 20z"/>
<path d="M7460 4167 c-18 -39 -34 -76 -35 -82 0 -5 -7 -9 -14 -7 -7 1 -10 -1
-7 -6 10 -16 -18 -73 -33 -67 -11 4 -11 2 -2 -8 8 -11 6 -18 -9 -32 -12 -10
-19 -24 -16 -31 3 -7 -2 -18 -10 -25 -12 -10 -13 -9 -9 4 4 8 2 18 -4 21 -6 4
-9 -5 -8 -21 3 -32 -10 -50 -35 -50 -20 0 -26 16 -26 65 -1 29 2 33 19 29 15
-4 19 0 19 18 0 13 4 26 8 29 11 7 2 76 -10 76 -6 0 -8 9 -5 21 7 25 -2 51
-14 43 -5 -3 -9 -10 -9 -15 0 -6 5 -7 12 -3 8 5 9 2 5 -10 -4 -10 -7 -22 -7
-27 0 -5 -5 -9 -11 -9 -6 0 -9 7 -5 15 12 32 -10 13 -39 -33 -16 -26 -33 -50
-38 -53 -6 -4 -3 -17 7 -30 9 -13 16 -18 16 -11 0 6 7 12 15 12 8 0 15 -4 15
-10 0 -5 -7 -10 -15 -10 -8 0 -15 -5 -15 -12 0 -6 -9 -1 -19 11 l-19 22 -34
-48 c-54 -75 -122 -227 -111 -247 3 -6 3 -8 -2 -4 -4 4 -38 -46 -75 -111 -37
-65 -92 -154 -122 -197 -30 -43 -57 -87 -61 -97 -4 -10 -12 -15 -17 -12 -6 4
-9 3 -8 -2 3 -11 -50 -93 -61 -93 -5 0 -12 -7 -15 -15 -6 -17 19 1 136 92 49
39 66 58 62 71 -5 14 -4 14 4 3 8 -12 33 9 121 99 66 67 109 120 106 128 -2 7
-1 11 4 7 12 -7 63 54 55 66 -3 5 -1 8 5 7 5 -2 33 28 60 66 36 49 49 76 45
91 -3 13 1 27 10 34 19 16 22 1 4 -17 -6 -6 -9 -14 -6 -17 13 -13 159 257 222
409 28 68 11 49 -24 -27z m-209 -120 c-13 -13 -26 -3 -16 12 3 6 11 8 17 5 6
-4 6 -10 -1 -17z m26 -24 c-3 -10 -5 -4 -5 12 0 17 2 24 5 18 2 -7 2 -21 0
-30z m-67 -14 c-7 -11 -14 -19 -16 -16 -7 7 7 37 17 37 6 0 5 -9 -1 -21z m54
-5 c9 -3 16 -10 16 -14 0 -10 -38 -1 -46 11 -6 10 7 12 30 3z m26 -164 c0 -4
-8 -7 -17 -6 -20 3 -46 -45 -37 -69 4 -8 2 -15 -4 -15 -11 0 -22 48 -15 67 3
8 17 20 32 27 26 14 41 13 41 -4z m-67 -109 c-4 -3 -11 -10 -15 -15 -4 -4 -6
1 -5 12 1 12 6 18 15 15 7 -3 10 -9 5 -12z m-55 -71 c-7 -10 -15 -16 -18 -12
-3 4 -9 11 -15 15 -6 5 -3 7 7 3 10 -3 20 -1 23 4 4 6 8 10 11 10 2 0 -1 -9
-8 -20z m-60 -68 c15 12 16 11 3 -4 -14 -19 -32 -15 -30 5 0 8 2 8 6 -1 4 -10
8 -10 21 0z m-103 -82 c4 -6 -1 -7 -11 -3 -14 5 -16 3 -10 -13 5 -14 4 -16 -5
-7 -12 12 -5 33 11 33 5 0 12 -4 15 -10z m45 7 c0 -2 -12 -14 -27 -28 l-28
-24 24 28 c23 25 31 32 31 24z m-99 -104 c3 1 1 -2 -4 -8 -4 -5 -13 -10 -20
-10 -7 0 -12 -6 -12 -12 0 -17 -42 -46 -58 -40 -8 4 -6 6 4 6 14 1 59 52 59
67 0 4 -10 -1 -22 -12 l-23 -19 19 22 c14 17 23 20 36 13 10 -5 19 -8 21 -7z
m-110 -30 c-5 -10 -9 -21 -10 -26 0 -4 -5 -15 -10 -25 -10 -16 -10 -16 -11 1
0 9 5 17 12 17 6 0 8 3 5 6 -6 7 10 44 19 44 2 0 0 -8 -5 -17z m-45 -115 c5
-8 2 -9 -10 -5 -14 6 -17 3 -12 -8 3 -9 2 -13 -4 -10 -6 3 -10 1 -10 -5 0 -6
-4 -8 -10 -5 -5 3 -10 1 -10 -4 0 -6 -5 -11 -12 -11 -12 0 41 59 54 60 4 0 10
-5 14 -12z"/>
<path d="M7226 3815 c-9 -26 -7 -32 5 -12 6 10 9 21 6 23 -2 3 -7 -2 -11 -11z"/>
<path d="M6863 4140 c0 -36 2 -50 4 -32 2 17 2 47 0 65 -2 17 -4 3 -4 -33z"/>
<path d="M7303 4186 c1 -11 9 -21 17 -23 10 -3 11 -2 4 4 -6 4 -14 15 -17 23
-5 11 -6 9 -4 -4z"/>
<path d="M7330 4190 c0 -5 5 -10 10 -10 6 0 10 5 10 10 0 6 -4 10 -10 10 -5 0
-10 -4 -10 -10z"/>
<path d="M7357 4159 c7 -7 15 -10 18 -7 3 3 -2 9 -12 12 -14 6 -15 5 -6 -5z"/>
<path d="M6640 4050 c0 -5 5 -10 10 -10 6 0 10 5 10 10 0 6 -4 10 -10 10 -5 0
-10 -4 -10 -10z"/>
<path d="M7371 4044 c0 -11 3 -14 6 -6 3 7 2 16 -1 19 -3 4 -6 -2 -5 -13z"/>
<path d="M7315 3980 c-9 -15 11 -20 29 -7 16 12 16 13 -3 14 -11 1 -23 -2 -26
-7z"/>
<path d="M7282 3902 c-1 -24 0 -25 9 -9 7 11 7 23 2 28 -5 5 -9 -3 -11 -19z"/>
<path d="M6030 3414 c0 -12 31 -35 40 -29 16 10 12 25 -5 19 -8 -4 -15 -1 -15
5 0 6 -4 11 -10 11 -5 0 -10 -3 -10 -6z"/>
<path d="M6073 3365 c-8 -22 5 -31 20 -15 10 10 9 11 -2 5 -11 -6 -13 -4 -8 8
3 10 4 17 1 17 -2 0 -7 -7 -11 -15z"/>
<path d="M6051 3338 c-1 -9 3 -28 9 -43 8 -22 12 -24 29 -13 11 7 18 14 16 17
-3 2 -11 -1 -19 -8 -11 -10 -16 -5 -24 26 -5 21 -10 30 -11 21z"/>
<path d="M0 54 c0 -53 0 -54 30 -54 29 0 30 2 30 45 0 25 0 48 0 52 0 4 -13 8
-30 9 -30 1 -30 1 -30 -52z"/>
</g>
</svg>
